<?xml version="1.0" encoding="UTF-8"?>
<svg width="9px" height="15px" viewBox="0 0 9 15" version="1.1" xmlns="http://www.w3.org/2000/svg" xmlns:xlink="http://www.w3.org/1999/xlink">
    <!-- Generator: Sketch 47.1 (45422) - http://www.bohemiancoding.com/sketch -->
    <title>Shape</title>
    <desc>Created with Sketch.</desc>
    <defs></defs>
    <g id="Web" stroke="none" stroke-width="1" fill="none" fill-rule="evenodd">
        <g id="Artboard" transform="translate(-537.000000, -312.000000)" stroke-width="0.4" stroke="#FF1F4C" fill="#FF1F4C" fill-rule="nonzero">
            <g id="Group-3-Copy" transform="translate(491.000000, 307.000000)">
                <g id="Group-43">
                    <path d="M47.7890499,18.8655172 C47.6988728,18.9551724 47.5861514,19 47.4621578,19 C47.3381643,19 47.2254428,18.9551724 47.1352657,18.8655172 C46.9549114,18.6862069 46.9549114,18.3948276 47.1352657,18.2155172 L52.884058,12.5 L47.1352657,6.78448276 C46.9549114,6.60517241 46.9549114,6.3137931 47.1352657,6.13448276 C47.31562,5.95517241 47.6086957,5.95517241 47.7890499,6.13448276 L53.8647343,12.175 C54.0450886,12.3543103 54.0450886,12.6456897 53.8647343,12.825 L47.7890499,18.8655172 L47.7890499,18.8655172 Z" id="Shape" transform="translate(50.500000, 12.500000) scale(-1, 1) translate(-50.500000, -12.500000) "></path>
                </g>
            </g>
        </g>
    </g>
</svg>