<?xml version="1.0" encoding="UTF-8"?>
<svg width="53px" height="45px" viewBox="0 0 53 45" version="1.1" xmlns="http://www.w3.org/2000/svg" xmlns:xlink="http://www.w3.org/1999/xlink">
    <!-- Generator: Sketch 47.1 (45422) - http://www.bohemiancoding.com/sketch -->
    <title>car (3)</title>
    <desc>Created with Sketch.</desc>
    <defs></defs>
    <g id="Web" stroke="none" stroke-width="1" fill="none" fill-rule="evenodd" opacity="0.08">
        <g id="choppy_web" transform="translate(-716.000000, -2196.000000)" fill-rule="nonzero" fill="#000000">
            <g id="car-(3)" transform="translate(716.000000, 2196.000000)">
                <path d="M49.6864325,17.5609831 L49.4148134,17.5609831 L45.2080287,2.9316152 C44.6515407,1.34238362 42.6574585,0 40.8533235,0 L12.1455379,0 C10.3414028,0 8.34732066,1.34228073 7.77095805,2.9908834 L3.584048,17.5609831 L3.31242883,17.5609831 C1.67163791,17.5609831 0,19.2226536 0,20.853661 L0,40.0993634 C0,42.9848811 1.97534623,45 4.89028361,45 L6.2373035,45 C9.06611772,45 11.041464,42.9848811 11.041464,40.0993634 L11.041464,37.3170506 L41.9575009,37.3170506 L41.9575009,40.0993634 C41.9575009,42.9848811 43.9328471,45 46.8477845,45 L48.1958395,45 C51.0246538,45 53,42.9848811 53,40.0993634 L53,20.853661 C52.9988614,19.1612246 51.3890209,17.5609831 49.6864325,17.5609831 Z M9.875489,3.65384352 C10.1239212,2.94478591 11.2910348,2.1951872 12.1456414,2.1951872 L40.8533235,2.1951872 C41.7079301,2.1951872 42.8750437,2.94478591 43.1036013,3.59457531 L47.118265,17.5609831 L5.88069983,17.5609831 L9.875489,3.65384352 Z M8.83310905,40.0993634 C8.83310905,41.4065565 8.15188736,42.8048128 6.15118035,42.8048128 L4.80416046,42.8048128 C2.88957659,42.8048128 2.2083549,41.4075855 2.2083549,40.0993634 L2.2083549,37.2138457 C2.48690946,37.280008 2.77219239,37.3145811 3.05851046,37.3170506 L8.83321257,37.3170506 L8.83321257,40.0993634 L8.83310905,40.0993634 Z M35.3325397,35.1219663 L17.6663216,35.1219663 L17.6663216,30.7316948 L35.3326432,30.7316948 L35.3326432,35.1219663 L35.3325397,35.1219663 Z M50.79061,40.0993634 C50.79061,41.4076884 50.1093883,42.8048128 48.1086813,42.8048128 L46.7616614,42.8048128 C44.8482162,42.8048128 44.1658558,41.4075855 44.1658558,40.0993634 L44.1658558,37.3170506 L49.9405579,37.3170506 C50.2269795,37.314684 50.5121589,37.2801109 50.7907135,37.2138457 L50.7907135,40.0993634 L50.79061,40.0993634 Z M50.79061,34.6697375 C50.79061,35.0999465 50.0828888,35.1219663 49.9404544,35.1219663 L37.5408946,35.1219663 L37.5408946,29.6342041 C37.5408946,29.0280426 37.0465146,28.5366105 36.4367172,28.5366105 L16.5621442,28.5366105 C15.9523467,28.5366105 15.4579667,29.0280426 15.4579667,29.6342041 L15.4579667,35.1219663 L3.05851046,35.1219663 C2.91607602,35.1219663 2.2083549,35.1000494 2.2083549,34.6697375 L2.2083549,20.853661 C2.2083549,20.4563789 2.84651502,19.7560674 3.31253235,19.7560674 L49.686536,19.7560674 C50.1712893,19.7560674 50.7907135,20.3717982 50.7907135,20.853661 L50.7907135,34.6697375 L50.79061,34.6697375 Z" id="Shape"></path>
                <path d="M9,22 C6.23854167,22 4,24.2385417 4,27 C4,29.7614583 6.23854167,32 9,32 C11.7614583,32 14,29.7614583 14,27 C14,24.2385417 11.7613542,22 9,22 Z M9,29.7778125 C7.46583333,29.7778125 6.2221875,28.5341667 6.2221875,27 C6.2221875,25.4658333 7.46583333,24.2221875 9,24.2221875 C10.5341667,24.2221875 11.7778125,25.4658333 11.7778125,27 C11.7778125,28.5341667 10.5340625,29.7778125 9,29.7778125 Z" id="Shape"></path>
                <path d="M44,22 C41.2385417,22 39,24.2385417 39,27 C39,29.7614583 41.2385417,32 44,32 C46.7614583,32 49,29.7614583 49,27 C49,24.2385417 46.7614583,22 44,22 Z M44,29.7778125 C42.4658333,29.7778125 41.2221875,28.5341667 41.2221875,27 C41.2221875,25.4658333 42.4658333,24.2221875 44,24.2221875 C45.5341667,24.2221875 46.7778125,25.4658333 46.7778125,27 C46.7778125,28.5341667 45.5341667,29.7778125 44,29.7778125 Z" id="Shape"></path>
            </g>
        </g>
    </g>
</svg>