<?xml version="1.0" encoding="UTF-8"?>
<svg width="45px" height="45px" viewBox="0 0 45 45" version="1.1" xmlns="http://www.w3.org/2000/svg" xmlns:xlink="http://www.w3.org/1999/xlink">
    <!-- Generator: Sketch 47.1 (45422) - http://www.bohemiancoding.com/sketch -->
    <title>clock</title>
    <desc>Created with Sketch.</desc>
    <defs></defs>
    <g id="Web" stroke="none" stroke-width="1" fill="none" fill-rule="evenodd">
        <g id="choppy_web" transform="translate(-650.000000, -956.000000)" fill-rule="nonzero" fill="#FF1F4C">
            <g id="clock" transform="translate(650.000000, 956.000000)">
                <path d="M22.5,0 C10.0935,0 0,10.0935 0,22.5 C0,34.9065 10.0935,45 22.5,45 C34.9065,45 45,34.9065 45,22.5 C45,10.0935 34.9065,0 22.5,0 Z M22.5,43.5 C10.92075,43.5 1.5,34.07925 1.5,22.5 C1.5,10.92075 10.92075,1.5 22.5,1.5 C34.07925,1.5 43.5,10.92075 43.5,22.5 C43.5,34.07925 34.07925,43.5 22.5,43.5 Z" id="Shape"></path>
                <path d="M23.75,19.2098947 L23.75,11.7368421 C23.75,11.3293684 23.414,11 23,11 C22.586,11 22.25,11.3293684 22.25,11.7368421 L22.25,19.2098947 C21.20075,19.4781053 20.3795,20.2849474 20.1065,21.3157895 L14.75,21.3157895 C14.336,21.3157895 14,21.6451579 14,22.0526316 C14,22.4601053 14.336,22.7894737 14.75,22.7894737 L20.1065,22.7894737 C20.44175,24.0568421 21.6065,25 23,25 C24.6545,25 26,23.6781053 26,22.0526316 C26,20.6828421 25.04,19.5392632 23.75,19.2098947 Z M23,23.5263158 C22.17275,23.5263158 21.5,22.8653684 21.5,22.0526316 C21.5,21.2398947 22.17275,20.5789474 23,20.5789474 C23.82725,20.5789474 24.5,21.2398947 24.5,22.0526316 C24.5,22.8653684 23.82725,23.5263158 23,23.5263158 Z" id="Shape"></path>
                <path d="M22.5,7 C22.776,7 23,6.702 23,6.33333333 L23,5.66666667 C23,5.298 22.776,5 22.5,5 C22.224,5 22,5.298 22,5.66666667 L22,6.33333333 C22,6.702 22.224,7 22.5,7 Z" id="Shape"></path>
                <path d="M22.5,37 C22.224,37 22,37.298 22,37.6666667 L22,38.3333333 C22,38.702 22.224,39 22.5,39 C22.776,39 23,38.702 23,38.3333333 L23,37.6666667 C23,37.298 22.776,37 22.5,37 Z" id="Shape"></path>
                <path d="M39.3333333,22 L38.6666667,22 C38.2986667,22 38,22.447 38,23 C38,23.553 38.2986667,24 38.6666667,24 L39.3333333,24 C39.7013333,24 40,23.553 40,23 C40,22.447 39.7013333,22 39.3333333,22 Z" id="Shape"></path>
                <path d="M6.33333333,22 L5.66666667,22 C5.29866667,22 5,22.447 5,23 C5,23.553 5.29866667,24 5.66666667,24 L6.33333333,24 C6.70133333,24 7,23.553 7,23 C7,22.447 6.70133333,22 6.33333333,22 Z" id="Shape"></path>
                <path d="M33.7388735,10.2163935 L33.2166205,10.7387671 C32.9277932,11.0276611 32.9277932,11.4946202 33.2166205,11.7835142 C33.3606648,11.9275918 33.5497692,12 33.7388735,12 C33.9279778,12 34.1170822,11.9275918 34.2611265,11.7835142 L34.7833795,11.2611406 C35.0722068,10.9722466 35.0722068,10.5052875 34.7833795,10.2163935 C34.4945522,9.92749951 34.0277008,9.92823837 33.7388735,10.2163935 Z" id="Shape"></path>
                <path d="M10.7388735,33.2163935 L10.2166205,33.7387671 C9.92779317,34.0276611 9.92779317,34.4946202 10.2166205,34.7835142 C10.3606648,34.9275918 10.5497692,35 10.7388735,35 C10.9279778,35 11.1170822,34.9275918 11.2611265,34.7835142 L11.7833795,34.2611406 C12.0722068,33.9722466 12.0722068,33.5052875 11.7833795,33.2163935 C11.4945522,32.9274995 11.0269621,32.9282384 10.7388735,33.2163935 Z" id="Shape"></path>
                <path d="M34.2611265,33.2166405 C33.9722992,32.9277865 33.5054478,32.9277865 33.2166205,33.2166405 C32.9277932,33.5054945 32.9277932,33.972389 33.2166205,34.261243 L33.7388735,34.7835442 C33.8829178,34.9276018 34.0720222,35 34.2611265,35 C34.4502308,35 34.6393352,34.9276018 34.7833795,34.7835442 C35.0722068,34.4946902 35.0722068,34.0277957 34.7833795,33.7389417 L34.2611265,33.2166405 Z" id="Shape"></path>
                <path d="M11.2611265,10.2166405 C10.9722992,9.9277865 10.5054478,9.9277865 10.2166205,10.2166405 C9.92779317,10.5054945 9.92779317,10.972389 10.2166205,11.261243 L10.7388735,11.7835442 C10.8829178,11.9276018 11.0720222,12 11.2611265,12 C11.4502308,12 11.6393352,11.9276018 11.7833795,11.7835442 C12.0722068,11.4946902 12.0722068,11.0277957 11.7833795,10.7389417 L11.2611265,10.2166405 Z" id="Shape"></path>
            </g>
        </g>
    </g>
</svg>