<?xml version="1.0" encoding="UTF-8"?>
<svg width="18px" height="18px" viewBox="0 0 18 18" version="1.1" xmlns="http://www.w3.org/2000/svg" xmlns:xlink="http://www.w3.org/1999/xlink">
    <!-- Generator: Sketch 47.1 (45422) - http://www.bohemiancoding.com/sketch -->
    <title>close (1)</title>
    <desc>Created with Sketch.</desc>
    <defs></defs>
    <g id="Web" stroke="none" stroke-width="1" fill="none" fill-rule="evenodd">
        <g id="choppy_web-popup" transform="translate(-831.000000, -169.000000)" fill-rule="nonzero" fill="#D7D7D7">
            <g id="close-(1)" transform="translate(831.000000, 169.000000)">
                <path d="M10.5918993,9.00018762 L17.6701757,1.92161604 C18.1099414,1.48220726 18.1099414,0.769246805 17.6701757,0.32983802 C17.23041,-0.109946007 16.5182298,-0.109946007 16.0784641,0.32983802 L9.00018761,7.4084096 L1.92153593,0.32983802 C1.48177024,-0.109946007 0.769589961,-0.109946007 0.329824269,0.32983802 C-0.109941423,0.769246805 -0.109941423,1.48220726 0.329824269,1.92161604 L7.40847595,9.00018762 L0.329824269,16.0787592 C-0.109941423,16.518168 -0.109941423,17.2311284 0.329824269,17.6705372 C0.549707115,17.890054 0.83788122,18 1.1256801,18 C1.41347898,18 1.70165308,17.890054 1.92153593,17.670162 L9.00018761,10.5915904 L16.0784641,17.670162 C16.2983469,17.890054 16.586521,18 16.8743199,18 C17.1621188,18 17.4502929,17.890054 17.6701757,17.670162 C18.1099414,17.2307532 18.1099414,16.5177927 17.6701757,16.078384 L10.5918993,9.00018762 Z" id="Shape"></path>
            </g>
        </g>
    </g>
</svg>