<?xml version="1.0" encoding="UTF-8"?>
<svg width="30px" height="30px" viewBox="0 0 30 30" version="1.1" xmlns="http://www.w3.org/2000/svg" xmlns:xlink="http://www.w3.org/1999/xlink">
    <!-- Generator: Sketch 47.1 (45422) - http://www.bohemiancoding.com/sketch -->
    <title>gearshift</title>
    <desc>Created with Sketch.</desc>
    <defs></defs>
    <g id="Web" stroke="none" stroke-width="1" fill="none" fill-rule="evenodd">
        <g id="choppy_web" transform="translate(-889.000000, -2870.000000)" fill-rule="nonzero" fill="#FF1F4C">
            <g id="gearshift" transform="translate(889.000000, 2870.000000)">
                <path d="M27.4999805,24.0427734 L27.4999805,15 L27.4999805,5.95722656 C28.914082,5.71728516 30,4.47966797 30,3 C30,1.35 28.65,0 27,0 C25.35,0 24,1.35 24,3 C24,4.47966797 25.085918,5.71728516 26.5000195,5.95722656 L26.5000195,14.5000195 L19.5,14.5000195 L19.5,5.95722656 C20.9141016,5.71728516 22.0000195,4.47966797 22.0000195,3 C22.0000195,1.35 20.6500195,0 19.0000195,0 C17.3500195,0 16.0000195,1.35 16.0000195,3 C16.0000195,4.47966797 17.0859375,5.71728516 18.5000391,5.95722656 L18.5000391,14.5000195 L11.5000195,14.5000195 L11.5000195,5.95722656 C12.9141211,5.71728516 14.0000391,4.47966797 14.0000391,3 C14.0000391,1.35 12.6500391,0 11.0000391,0 C9.35003906,0 8.00003906,1.35 8.00003906,3 C8.00003906,4.47966797 9.08595703,5.71728516 10.5000586,5.95722656 L10.5000586,14.5000195 L3.49998047,14.5000195 L3.49998047,5.95722656 C4.91408203,5.71728516 6,4.47966797 6,3 C6,1.35 4.65,0 3,0 C1.35,0 0,1.35 0,3 C0,4.47966797 1.08591797,5.71728516 2.50001953,5.95722656 L2.50001953,15 C2.50001953,15.3 2.7,15.4999805 3,15.4999805 L10.5,15.4999805 L10.5,24.0427734 C9.08589844,24.2827148 7.99998047,25.520332 7.99998047,27 C7.99998047,28.65 9.34998047,30 10.9999805,30 C12.6499805,30 13.9999805,28.65 13.9999805,27 C13.9999805,25.520332 12.9140625,24.2827148 11.4999609,24.0427734 L11.4999609,15.4999805 L18.4999805,15.4999805 L18.4999805,24.0427734 C17.0858789,24.2827148 15.9999609,25.520332 15.9999609,27 C15.9999609,28.65 17.3499609,30 18.9999609,30 C20.6499609,30 21.9999609,28.65 21.9999609,27 C21.9999609,25.520332 20.914043,24.2827148 19.4999414,24.0427734 L19.4999414,15.4999805 L26.4999609,15.4999805 L26.4999609,24.0427734 C25.0858594,24.2827148 23.9999414,25.520332 23.9999414,27 C23.9999414,28.65 25.3499414,30 26.9999414,30 C28.6499414,30 29.9999414,28.65 29.9999414,27 C30,25.520332 28.914082,24.2827148 27.4999805,24.0427734 Z M25.0000195,3 C25.0000195,1.90001953 25.9000195,1.00001953 27,1.00001953 C28.0999805,1.00001953 28.9999805,1.90001953 28.9999805,3 C28.9999805,4.09998047 28.0999805,4.99998047 27,4.99998047 C25.9000195,4.99998047 25.0000195,4.09998047 25.0000195,3 Z M16.9999805,3 C16.9999805,1.90001953 17.8999805,1.00001953 18.9999609,1.00001953 C20.0999414,1.00001953 20.9999414,1.90001953 20.9999414,3 C20.9999414,4.09998047 20.0999414,4.99998047 18.9999609,4.99998047 C17.8999805,4.99998047 16.9999805,4.09998047 16.9999805,3 Z M9,3 C9,1.90001953 9.9,1.00001953 10.9999805,1.00001953 C12.0999609,1.00001953 12.9999609,1.90001953 12.9999609,3 C12.9999609,4.09998047 12.0999609,4.99998047 10.9999805,4.99998047 C9.9,4.99998047 9,4.09998047 9,3 Z M1.00001953,3 C1.00001953,1.90001953 1.90001953,1.00001953 3,1.00001953 C4.09998047,1.00001953 4.99998047,1.90001953 4.99998047,3 C4.99998047,4.09998047 4.09998047,4.99998047 3,4.99998047 C1.90001953,4.99998047 1.00001953,4.09998047 1.00001953,3 Z M13.0000195,27 C13.0000195,28.0999805 12.1000195,28.9999805 11.0000391,28.9999805 C9.90005859,28.9999805 9.00005859,28.0999805 9.00005859,27 C9.00005859,25.9000195 9.90005859,25.0000195 11.0000391,25.0000195 C12.1000195,25.0000195 13.0000195,25.9000195 13.0000195,27 Z M21,27 C21,28.0999805 20.1,28.9999805 19.0000195,28.9999805 C17.9000391,28.9999805 17.0000391,28.0999805 17.0000391,27 C17.0000391,25.9000195 17.9000391,25.0000195 19.0000195,25.0000195 C20.1,25.0000195 21,25.9000195 21,27 Z M27,28.9999805 C25.9000195,28.9999805 25.0000195,28.0999805 25.0000195,27 C25.0000195,25.9000195 25.9000195,25.0000195 27,25.0000195 C28.0999805,25.0000195 28.9999805,25.9000195 28.9999805,27 C28.9999805,28.0999805 28.0999805,28.9999805 27,28.9999805 Z" id="Shape"></path>
            </g>
        </g>
    </g>
</svg>