<?xml version="1.0" encoding="UTF-8"?>
<svg width="53px" height="45px" viewBox="0 0 53 45" version="1.1" xmlns="http://www.w3.org/2000/svg" xmlns:xlink="http://www.w3.org/1999/xlink">
    <!-- Generator: Sketch 47.1 (45422) - http://www.bohemiancoding.com/sketch -->
    <title>map (1)</title>
    <desc>Created with Sketch.</desc>
    <defs></defs>
    <g id="Web" stroke="none" stroke-width="1" fill="none" fill-rule="evenodd" opacity="0.0799999982">
        <g id="choppy_web" transform="translate(-474.000000, -2196.000000)" fill-rule="nonzero" fill="#000000">
            <g id="map-(1)" transform="translate(474.000000, 2196.000000)">
                <path d="M52.4903167,6.25477188 L39.2403167,0.0775615489 C39.2270667,0.0713843385 39.21205,0.0696194213 39.1988,0.0643246696 C39.1617,0.0493228731 39.1237167,0.037850911 39.0857333,0.0281438662 C39.0539333,0.0202017386 39.0230167,0.0122596111 38.9912167,0.00784731797 C38.9514667,0.00167010763 38.9117167,0.000787649015 38.8710833,0.000787649015 C38.8384,0.000787649015 38.8057167,0.000787649015 38.7730333,0.00431748349 C38.73505,0.00784731797 38.6988333,0.0166719042 38.6617333,0.0254964903 C38.6264,0.0343210765 38.5910667,0.0431456627 38.5566167,0.0555000834 C38.54425,0.0599123765 38.531,0.0607948351 38.5186333,0.0660895868 L26.5,5.21170579 L14.4813667,0.0660895868 C14.4734167,0.0625597523 14.4654667,0.0625597523 14.4575167,0.0590299179 C14.4221833,0.04491058 14.3859667,0.0369684524 14.34975,0.0281438662 C14.3161833,0.01931928 14.2826167,0.0096122352 14.2481667,0.00431748349 C14.2110667,-9.48096037e-05 14.17485,0.000787649015 14.13775,0.000787649015 C14.1033,0.000787649015 14.0697333,-0.00185972684 14.0361667,0.00255256625 C13.9981833,0.00696485935 13.9610833,0.0175543628 13.9239833,0.026378949 C13.8913,0.0343210765 13.8586167,0.0404982869 13.8268167,0.0519702489 C13.81975,0.0546176248 13.8118,0.0546176248 13.8047333,0.0581474592 L0.554733333,5.35289917 C0.21995,5.48703288 0,5.8108952 0,6.17182077 L0,44.1175414 C0,44.4105176 0.14575,44.6840798 0.387783333,44.8482171 C0.536183333,44.9479349 0.709316667,45 0.883333333,45 C0.99375,45 1.10505,44.9797035 1.21193333,44.9373454 L14.1227333,39.7784924 L26.15285,44.9285209 C26.1652167,44.9338156 26.1784667,44.9311682 26.1908333,44.936463 C26.2915333,44.9744087 26.3948833,45 26.5008833,45 C26.6068833,45 26.7111167,44.9744087 26.8109333,44.936463 C26.8233,44.9320507 26.83655,44.9338156 26.8489167,44.9285209 L38.8790333,39.7784924 L51.7898333,44.9373454 C51.8958333,44.9797035 52.0071333,45 52.1184333,45 C52.29245,45 52.4655833,44.9479349 52.6139833,44.8482171 C52.85425,44.6840798 53,44.4105176 53,44.1175414 L53,7.05427939 C53,6.71100299 52.80125,6.39949509 52.4903167,6.25477188 Z M1.76666667,6.76924526 L13.25,2.18046044 L13.25,38.2253652 L1.76666667,42.81415 L1.76666667,6.76924526 Z M15.0166667,2.21575878 L25.6166667,6.75424346 L25.6166667,42.7788517 L15.0166667,38.240367 L15.0166667,2.21575878 Z M27.3833333,6.753361 L37.9833333,2.21487632 L37.9833333,38.240367 L27.3833333,42.7788517 L27.3833333,6.753361 Z M51.2333333,42.81415 L39.75,38.2253652 L39.75,2.26252909 L51.2333333,7.61552307 L51.2333333,42.81415 Z" id="Shape"></path>
            </g>
        </g>
    </g>
</svg>