<?xml version="1.0" encoding="UTF-8"?>
<svg width="24px" height="13px" viewBox="0 0 24 13" version="1.1" xmlns="http://www.w3.org/2000/svg" xmlns:xlink="http://www.w3.org/1999/xlink">
    <!-- Generator: Sketch 47.1 (45422) - http://www.bohemiancoding.com/sketch -->
    <title>menu (2) copy</title>
    <desc>Created with Sketch.</desc>
    <defs></defs>
    <g id="Web" stroke="none" stroke-width="1" fill="none" fill-rule="evenodd">
        <g id="Artboard" transform="translate(-589.000000, -504.000000)" stroke="#FF1F4C" stroke-width="0.4" fill="#FF1F4C" fill-rule="nonzero">
            <g id="menu-(2)-copy" transform="translate(590.000000, 505.000000)">
                <path d="M0.687483927,1 L21.3125161,1 C21.6920323,1 22,0.775976725 22,0.5 C22,0.223981712 21.6919752,0 21.3125161,0 L0.687483927,0 C0.307967655,0 0,0.224023275 0,0.5 C0,0.775976725 0.308024802,1 0.687483927,1 Z" id="Shape"></path>
                <path d="M21.3125161,5 L0.687483927,5 C0.307967655,5 0,5.22402328 0,5.5 C0,5.77597672 0.308024802,6 0.687483927,6 L21.3125161,6 C21.6920323,6 22,5.77597672 22,5.5 C22,5.22402328 21.6920323,5 21.3125161,5 Z" id="Shape"></path>
                <path d="M21.3181973,10 L7.68180272,10 C7.30542268,10 7,10.2240233 7,10.5 C7,10.7760183 7.30547936,11 7.68180272,11 L21.3181973,11 C21.6945773,11 22,10.7759767 22,10.5 C22.0000567,10.2239817 21.6945773,10 21.3181973,10 Z" id="Shape"></path>
            </g>
        </g>
    </g>
</svg>