<?xml version="1.0" encoding="UTF-8"?>
<svg width="69px" height="45px" viewBox="0 0 69 45" version="1.1" xmlns="http://www.w3.org/2000/svg" xmlns:xlink="http://www.w3.org/1999/xlink">
    <!-- Generator: Sketch 47.1 (45422) - http://www.bohemiancoding.com/sketch -->
    <title>paper-plane</title>
    <desc>Created with Sketch.</desc>
    <defs></defs>
    <g id="Web" stroke="none" stroke-width="1" fill="none" fill-rule="evenodd" opacity="0.0799999982">
        <g id="choppy_web" transform="translate(-226.000000, -2196.000000)" fill-rule="nonzero" fill="#000000">
            <g id="paper-plane" transform="translate(226.000000, 2196.000000)">
                <path d="M68.9820032,1.30685001 C68.9865984,1.2798428 68.9946402,1.2528356 68.9969378,1.2258284 C69.0049796,1.1425562 68.995789,1.0581587 68.9854496,0.973761194 C68.983152,0.952380493 68.9865984,0.932125092 68.983152,0.910744391 C68.9624732,0.799339687 68.9245621,0.690185583 68.8682698,0.585532679 C68.8590793,0.567527879 68.8464422,0.550648378 68.8361028,0.532643578 C68.8338052,0.530392977 68.8338052,0.527017077 68.8326564,0.523641177 C68.8315075,0.521390577 68.8280611,0.520265277 68.8269123,0.516889377 C68.8188705,0.504511077 68.8119776,0.491007476 68.8039358,0.479754476 C68.7327089,0.377352172 68.6465473,0.292954669 68.5500463,0.220935466 C68.5282187,0.205181266 68.5029446,0.196178865 68.4799682,0.181549965 C68.3949554,0.126410263 68.3053473,0.0813982611 68.2088463,0.05101516 C68.1663399,0.0375115595 68.1238335,0.0307597592 68.0801783,0.0228826589 C67.9963143,0.00600315831 67.9124503,-0.00187394198 67.8251399,0.000376658107 C67.7791871,0.00150195815 67.7355318,0.00375255823 67.689579,0.0105043585 C67.6597096,0.0150055586 67.6309891,0.0105043585 67.6011197,0.0172561587 L0.916627383,13.5163555 C0.442164107,13.6131313 0.0791365155,13.9901068 0.0113560475,14.4604822 C-0.0564244206,14.9308576 0.183679271,15.3922306 0.612189688,15.6139147 L19.7193887,25.486172 L23.070501,43.7014038 C23.0682034,43.7149074 23.0716499,43.7295363 23.070501,43.7430399 C23.0590128,43.8330639 23.057864,43.9208373 23.0693522,44.009736 C23.0750963,44.054748 23.0808404,44.0975094 23.0923286,44.1413961 C23.1187515,44.2482996 23.1612579,44.3484513 23.218699,44.4429765 C23.2301872,44.4609813 23.2301872,44.482362 23.2428243,44.5003668 C23.2462707,44.5059933 23.2520148,44.5104945 23.2566101,44.5149957 C23.2715448,44.5363764 23.2922236,44.5532559 23.3094559,44.5746366 C23.3634505,44.639904 23.4197428,44.6995449 23.4840768,44.7501834 C23.4944162,44.7580605 23.5013091,44.7704388 23.5127973,44.7783159 C23.5300296,44.7906942 23.5495596,44.7940701 23.5667919,44.8053231 C23.63687,44.8503351 23.7092458,44.88747 23.7862168,44.9167278 C23.817235,44.9279808 23.8459555,44.9414844 23.8781225,44.9504868 C23.9815165,44.9797446 24.0883569,45 24.1963461,45 C24.1974949,45 24.1986437,45 24.1997926,45 L24.1997926,45 C24.1997926,45 24.1997926,45 24.1997926,45 C24.2043879,45 24.2089831,44.9977494 24.2135784,44.9977494 C24.2331084,44.9988747 24.2526384,45 24.2721683,45 C24.5903919,45 24.8775972,44.8604628 25.0901292,44.6455305 L37.8179225,36.3340644 L51.1442518,44.8188267 C51.3326586,44.9381085 51.5509347,45 51.7703596,45 C51.8507771,45 51.9714033,44.9808699 52.1322383,44.9426097 C52.5289647,44.7040461 52.7675366,44.4774857 52.8479541,44.2629285 L68.9268597,1.51390521 C68.9417944,1.47564501 68.9544314,1.43625951 68.9647708,1.39574871 C68.9693661,1.37886921 68.9705149,1.36198971 68.9739614,1.34623551 C68.9774079,1.33385721 68.9797055,1.32035361 68.9820032,1.30685001 Z M55.6763526,8.48964017 L28.1126786,28.3410582 C28.0678745,28.3736919 28.0322611,28.4142027 27.9932011,28.4524629 C27.9782665,28.4659665 27.9633318,28.4772195 27.9506947,28.4918484 C27.9265695,28.5177303 27.9047419,28.5436122 27.8829143,28.5717447 C27.8622355,28.5987519 27.846152,28.6268844 27.8277708,28.6550169 C27.7852644,28.7225349 27.749651,28.7923035 27.7220793,28.8665733 C27.7163352,28.8812022 27.7071446,28.8924552 27.7025493,28.9070841 C27.7014005,28.9115853 27.6968052,28.9138359 27.6956564,28.9183371 L24.5363973,38.9751436 L22.0331152,25.3691408 L55.6763526,8.48964017 Z M26.3170706,41.1402209 L29.448758,31.0080193 L34.3243564,34.1127221 L35.7190257,35.0005838 L30.9812858,38.0940336 L26.3170706,41.1402209 Z M59.7891336,3.8972907 L20.760221,23.4786367 L4.51588512,15.086149 L59.7891336,3.8972907 Z M51.1902047,42.1642439 L33.4926096,30.8977399 L30.8124091,29.1906597 L65.4539724,4.24050721 L51.1902047,42.1642439 Z" id="Shape"></path>
            </g>
        </g>
    </g>
</svg>