<?xml version="1.0" encoding="UTF-8"?>
<svg width="54px" height="26px" viewBox="0 0 54 26" version="1.1" xmlns="http://www.w3.org/2000/svg" xmlns:xlink="http://www.w3.org/1999/xlink">
    <!-- Generator: Sketch 47.1 (45422) - http://www.bohemiancoding.com/sketch -->
    <title>Group 6</title>
    <desc>Created with Sketch.</desc>
    <defs></defs>
    <g id="Web" stroke="none" stroke-width="1" fill="none" fill-rule="evenodd">
        <g id="choppy_web" transform="translate(-170.000000, -2872.000000)" fill-rule="nonzero" fill="#FF1F4C">
            <g id="Group-6" transform="translate(170.000000, 2872.000000)">
                <g id="car-(3)-copy-2" transform="translate(12.000000, 0.000000)">
                    <path d="M28.1243958,10.1463458 L27.9706491,10.1463458 L25.5894502,1.69382211 C25.274457,0.775599427 24.1457312,0 23.1245227,0 L6.87483277,0 C5.85362424,0 4.72489849,0.775539976 4.3986555,1.72806596 L2.02870641,10.1463458 L1.87495972,10.1463458 C0.94621014,10.1463458 0,11.1064221 0,12.0487819 L0,23.1685211 C0,24.8357091 1.11812051,26 2.76808506,26 L3.53054915,26 C5.13176475,26 6.24988526,24.8357091 6.24988526,23.1685211 L6.24988526,21.5609626 L23.7495288,21.5609626 L23.7495288,23.1685211 C23.7495288,24.8357091 24.8676493,26 26.5176139,26 L27.2806639,26 C28.8818795,26 30,24.8357091 30,23.1685211 L30,12.0487819 C29.9993555,11.0709298 29.0881251,10.1463458 28.1243958,10.1463458 Z M5.58989944,2.11110959 C5.73052141,1.70143186 6.39115175,1.26833038 6.87489136,1.26833038 L23.1245227,1.26833038 C23.6082623,1.26833038 24.2688927,1.70143186 24.3982649,2.07686574 L26.6707161,10.1463458 L3.32869802,10.1463458 L5.58989944,2.11110959 Z M4.99987305,23.1685211 C4.99987305,23.9237882 4.61427587,24.7316696 3.4818002,24.7316696 L2.71933611,24.7316696 C1.63560939,24.7316696 1.25001221,23.9243827 1.25001221,23.1685211 L1.25001221,21.5013331 C1.4076846,21.5395602 1.56916551,21.5595357 1.73123234,21.5609626 L4.99993164,21.5609626 L4.99993164,23.1685211 L4.99987305,23.1685211 Z M19.9995508,20.2926916 L9.99980469,20.2926916 L9.99980469,17.7560903 L19.9996094,17.7560903 L19.9996094,20.2926916 L19.9995508,20.2926916 Z M28.7494019,23.1685211 C28.7494019,23.9244422 28.3638047,24.7316696 27.231329,24.7316696 L26.4688649,24.7316696 C25.3857827,24.7316696 24.999541,23.9243827 24.999541,23.1685211 L24.999541,21.5609626 L28.2682403,21.5609626 C28.4303658,21.5595952 28.5917881,21.5396196 28.7494605,21.5013331 L28.7494605,23.1685211 L28.7494019,23.1685211 Z M28.7494019,20.0314039 C28.7494019,20.2799691 28.348805,20.2926916 28.2681817,20.2926916 L21.249563,20.2926916 L21.249563,17.1219846 C21.249563,16.771758 20.9697253,16.4878194 20.6245569,16.4878194 L9.37479859,16.4878194 C9.02963022,16.4878194 8.74979248,16.771758 8.74979248,17.1219846 L8.74979248,20.2926916 L1.73123234,20.2926916 C1.65060907,20.2926916 1.25001221,20.2800285 1.25001221,20.0314039 L1.25001221,12.0487819 C1.25001221,11.8192411 1.61123491,11.4146167 1.87501831,11.4146167 L28.1244544,11.4146167 C28.398843,11.4146167 28.7494605,11.7703723 28.7494605,12.0487819 L28.7494605,20.0314039 L28.7494019,20.0314039 Z" id="Shape"></path>
                    <path d="M5,12.4347826 C3.46585648,12.4347826 2.22222222,13.7000453 2.22222222,15.2608696 C2.22222222,16.8216938 3.46585648,18.0869565 5,18.0869565 C6.53414352,18.0869565 7.77777778,16.8216938 7.77777778,15.2608696 C7.77777778,13.7000453 6.53408565,12.4347826 5,12.4347826 Z M5,16.8309375 C4.14768519,16.8309375 3.45677083,16.1280072 3.45677083,15.2608696 C3.45677083,14.3937319 4.14768519,13.6908016 5,13.6908016 C5.85231481,13.6908016 6.54322917,14.3937319 6.54322917,15.2608696 C6.54322917,16.1280072 5.85225694,16.8309375 5,16.8309375 Z" id="Shape"></path>
                    <path d="M25,12.4347826 C23.4658565,12.4347826 22.2222222,13.7000453 22.2222222,15.2608696 C22.2222222,16.8216938 23.4658565,18.0869565 25,18.0869565 C26.5341435,18.0869565 27.7777778,16.8216938 27.7777778,15.2608696 C27.7777778,13.7000453 26.5341435,12.4347826 25,12.4347826 Z M25,16.8309375 C24.1476852,16.8309375 23.4567708,16.1280072 23.4567708,15.2608696 C23.4567708,14.3937319 24.1476852,13.6908016 25,13.6908016 C25.8523148,13.6908016 26.5432292,14.3937319 26.5432292,15.2608696 C26.5432292,16.1280072 25.8523148,16.8309375 25,16.8309375 Z" id="Shape"></path>
                </g>
                <g id="wifi-(1)-copy" transform="translate(4.000000, 12.000000) rotate(-90.000000) translate(-4.000000, -12.000000) translate(-5.000000, 8.000000)" stroke="#FF1F4C" stroke-width="0.3">
                    <path d="M17.7931222,3.73015385 C15.4334118,1.50123077 12.2904977,0.273846154 8.94428959,0.273846154 C5.59808145,0.273846154 2.45549321,1.50092308 0.0954570136,3.73015385 C-0.0319276018,3.85046154 -0.0319276018,4.04492308 0.0954570136,4.16523077 C0.222841629,4.28553846 0.428742081,4.28553846 0.556126697,4.16523077 C2.79301357,2.05230769 5.7720543,0.888923077 8.94428959,0.888923077 C12.1165249,0.888923077 15.0955656,2.05230769 17.3324525,4.16492308 C17.3959819,4.22492308 17.4793846,4.25507692 17.5627873,4.25507692 C17.64619,4.25507692 17.7295928,4.22492308 17.7931222,4.16492308 C17.9205068,4.04492308 17.9205068,3.85015385 17.7931222,3.73015385 Z" id="Shape"></path>
                    <path d="M2.01046154,5.53846154 C1.88307692,5.65876923 1.88307692,5.85323077 2.01046154,5.97353846 C2.07399095,6.03353846 2.15739367,6.06369231 2.24079638,6.06369231 C2.3241991,6.06369231 2.40760181,6.03353846 2.47113122,5.97353846 C6.040181,2.60246154 11.8477466,2.60246154 15.4171222,5.97353846 C15.5445068,6.09384615 15.7504072,6.09384615 15.8777919,5.97353846 C16.0051765,5.85323077 16.0051765,5.65876923 15.8777919,5.53846154 C12.0549502,1.928 5.83395475,1.92738462 2.01046154,5.53846154 Z" id="Shape"></path>
                    <path d="M8.94428959,5.38707692 C7.04655204,5.38707692 5.26447059,6.08338462 3.92579186,7.34738462 C3.79840724,7.46769231 3.79840724,7.66215385 3.92579186,7.78246154 C4.05317647,7.90276923 4.25907692,7.90276923 4.38646154,7.78246154 C5.60199095,6.63476923 7.22052489,6.00246154 8.94428959,6.00246154 C10.6680543,6.00246154 12.2865882,6.63476923 13.5021176,7.78246154 C13.5656471,7.84246154 13.6490498,7.87261538 13.7324525,7.87261538 C13.8158552,7.87261538 13.8992579,7.84246154 13.9627873,7.78246154 C14.0901719,7.66215385 14.0901719,7.46769231 13.9627873,7.34738462 C12.6244344,6.08338462 10.8420271,5.38707692 8.94428959,5.38707692 Z" id="Shape"></path>
                </g>
                <g id="wifi-(1)-copy-2" transform="translate(50.000000, 12.000000) rotate(90.000000) translate(-50.000000, -12.000000) translate(41.000000, 8.000000)" stroke="#FF1F4C" stroke-width="0.3">
                    <path d="M17.7931222,3.73015385 C15.4334118,1.50123077 12.2904977,0.273846154 8.94428959,0.273846154 C5.59808145,0.273846154 2.45549321,1.50092308 0.0954570136,3.73015385 C-0.0319276018,3.85046154 -0.0319276018,4.04492308 0.0954570136,4.16523077 C0.222841629,4.28553846 0.428742081,4.28553846 0.556126697,4.16523077 C2.79301357,2.05230769 5.7720543,0.888923077 8.94428959,0.888923077 C12.1165249,0.888923077 15.0955656,2.05230769 17.3324525,4.16492308 C17.3959819,4.22492308 17.4793846,4.25507692 17.5627873,4.25507692 C17.64619,4.25507692 17.7295928,4.22492308 17.7931222,4.16492308 C17.9205068,4.04492308 17.9205068,3.85015385 17.7931222,3.73015385 Z" id="Shape"></path>
                    <path d="M2.01046154,5.53846154 C1.88307692,5.65876923 1.88307692,5.85323077 2.01046154,5.97353846 C2.07399095,6.03353846 2.15739367,6.06369231 2.24079638,6.06369231 C2.3241991,6.06369231 2.40760181,6.03353846 2.47113122,5.97353846 C6.040181,2.60246154 11.8477466,2.60246154 15.4171222,5.97353846 C15.5445068,6.09384615 15.7504072,6.09384615 15.8777919,5.97353846 C16.0051765,5.85323077 16.0051765,5.65876923 15.8777919,5.53846154 C12.0549502,1.928 5.83395475,1.92738462 2.01046154,5.53846154 Z" id="Shape"></path>
                    <path d="M8.94428959,5.38707692 C7.04655204,5.38707692 5.26447059,6.08338462 3.92579186,7.34738462 C3.79840724,7.46769231 3.79840724,7.66215385 3.92579186,7.78246154 C4.05317647,7.90276923 4.25907692,7.90276923 4.38646154,7.78246154 C5.60199095,6.63476923 7.22052489,6.00246154 8.94428959,6.00246154 C10.6680543,6.00246154 12.2865882,6.63476923 13.5021176,7.78246154 C13.5656471,7.84246154 13.6490498,7.87261538 13.7324525,7.87261538 C13.8158552,7.87261538 13.8992579,7.84246154 13.9627873,7.78246154 C14.0901719,7.66215385 14.0901719,7.46769231 13.9627873,7.34738462 C12.6244344,6.08338462 10.8420271,5.38707692 8.94428959,5.38707692 Z" id="Shape"></path>
                </g>
            </g>
        </g>
    </g>
</svg>