<?xml version="1.0" encoding="UTF-8"?>
<svg width="45px" height="46px" viewBox="0 0 45 46" version="1.1" xmlns="http://www.w3.org/2000/svg" xmlns:xlink="http://www.w3.org/1999/xlink">
    <!-- Generator: Sketch 47.1 (45422) - http://www.bohemiancoding.com/sketch -->
    <title>placeholder (3)</title>
    <desc>Created with Sketch.</desc>
    <defs></defs>
    <g id="Web" stroke="none" stroke-width="1" fill="none" fill-rule="evenodd">
        <g id="choppy_web" transform="translate(-169.000000, -956.000000)" fill-rule="nonzero" fill="#FF1F4C">
            <g id="placeholder-(3)" transform="translate(169.000000, 956.000000)">
                <path d="M22.5,20 C25.5320714,20 28,17.5320714 28,14.5 C28,11.4679286 25.5320714,9 22.5,9 C19.4679286,9 17,11.4679286 17,14.5 C17,17.5320714 19.4671429,20 22.5,20 Z M22.5,10.5714286 C24.6662143,10.5714286 26.4285714,12.3337857 26.4285714,14.5 C26.4285714,16.6662143 24.6662143,18.4285714 22.5,18.4285714 C20.3337857,18.4285714 18.5714286,16.6662143 18.5714286,14.5 C18.5714286,12.3337857 20.3337857,10.5714286 22.5,10.5714286 Z" id="Shape"></path>
                <path d="M36.2731003,28.3663728 L32.0517998,28.3663728 L34.3855212,24.9929832 C38.7933213,19.1117852 38.15532,9.44472408 33.0214392,4.30643844 C30.2480867,1.52952549 26.5594741,0 22.6357279,0 C18.7127476,0 15.024135,1.52952549 12.2500166,4.30643844 C7.11613583,9.44472408 6.47813453,19.1125519 10.8683187,24.9699828 L13.2181242,28.3671395 L8.72720046,28.3671395 L8.72720046,28.3671395 C7.95550403,28.3671395 7.25265484,28.8111091 6.92114651,29.5079718 L0.435784672,43.1408323 L0.435784672,43.1408323 C-0.0387205439,44.1382884 0.385214873,45.3315487 1.38267093,45.806054 C1.65108957,45.9337448 1.94459541,46 2.24183862,46 L42.7585449,46 L42.7585449,46 C43.8631144,46 44.7585449,45.1045695 44.7585449,44 C44.7585449,43.7027682 44.6922948,43.4092733 44.5646133,43.1408628 L38.0791688,29.5072355 L38.0791688,29.5072355 C37.747667,28.8103562 37.044809,28.3663728 36.2731003,28.3663728 Z M12.1113872,24.0729679 C8.129432,18.7575793 8.70003339,10.0274005 13.3337763,5.3897565 C15.8183816,2.90264838 19.1225083,1.53259221 22.6364938,1.53259221 C26.1504793,1.53259221 29.4538402,2.90264838 31.9392113,5.3897565 C36.5729542,10.0274005 37.1435556,18.758346 33.1439845,24.0959683 L22.6357279,39.2861881 L15.0815781,28.3663728 L15.0815781,28.3663728 L12.1113872,24.0729679 Z M8.43196562,29.8997317 L14.2789066,29.8997317 L22.6357279,41.9802997 L30.9917832,29.8997317 L36.5683588,29.8997317 L43.4982936,44.4666411 L1.50203081,44.4666411 L8.43196562,29.8997317 Z" id="Shape"></path>
            </g>
        </g>
    </g>
</svg>