<?xml version="1.0" encoding="UTF-8"?>
<svg width="44px" height="27px" viewBox="0 0 44 27" version="1.1" xmlns="http://www.w3.org/2000/svg" xmlns:xlink="http://www.w3.org/1999/xlink">
    <!-- Generator: Sketch 47.1 (45422) - http://www.bohemiancoding.com/sketch -->
    <title>rearview-mirror (2)</title>
    <desc>Created with Sketch.</desc>
    <defs></defs>
    <g id="Web" stroke="none" stroke-width="1" fill="none" fill-rule="evenodd">
        <g id="choppy_web" transform="translate(-651.000000, -2872.000000)" fill-rule="nonzero" fill="#FF1F4C">
            <g id="rearview-mirror-(2)" transform="translate(651.000000, 2872.000000)">
                <path d="M41.5693184,12.0621731 C40.4638152,12.0621731 39.5289509,12.7992097 39.2350775,13.8042131 L32.9679828,13.8042131 L32.9679828,5.57041733 C32.9679828,2.49894815 30.4517671,0 27.3588828,0 L27.0543606,0 C26.6807068,0 26.3778163,0.300716398 26.3778163,0.671878554 C26.3778163,1.04304071 26.6807068,1.34375711 27.0543606,1.34375711 L27.3588828,1.34375711 C29.705576,1.34375711 31.6148083,3.23982261 31.6148083,5.57033204 L31.6148083,14.4760917 L31.6148083,16.0073061 C31.6148083,18.3378156 29.705576,20.2338811 27.3588828,20.2338811 L22.5794469,20.2338811 L10.6765443,20.2338811 C10.3028905,20.2338811 10,20.5345975 10,20.9057596 C10,21.2769218 10.3028905,21.5776382 10.6765443,21.5776382 L22.5077391,21.5776382 L39.2045909,25.1428247 C39.4584453,26.2062486 40.4220786,27 41.5693184,27 C42.9095253,27 44,25.9170457 44,24.5860814 L44,14.4760917 C44,13.1451274 42.9095253,12.0621731 41.5693184,12.0621731 Z M32.1828032,18.8452638 C32.5713138,18.1955595 32.8269717,17.4690982 32.9211795,16.7188424 C32.9508073,16.4829429 32.9678969,16.2451672 32.9678969,16.0073914 L32.9678969,15.1480555 L36.2573552,15.1480555 L36.2573552,16.6101035 C36.2573552,17.8502388 35.2414223,18.8590801 33.992761,18.8590801 L32.1746449,18.8590801 C32.1774788,18.8545599 32.1799693,18.8498692 32.1828032,18.8452638 Z M28.4496151,21.4720548 C28.4993382,21.46165 28.5271626,21.4549124 28.5552446,21.4488572 C29.4709582,21.2504833 30.3376356,20.8157835 31.0432066,20.203093 L33.9926751,20.203093 C35.9875275,20.203093 37.6104437,18.5913691 37.6104437,16.6102741 L37.6104437,15.1482261 L39.1383792,15.1482261 L39.1383792,23.754378 L28.4496151,21.4720548 Z M42.6468256,24.5861667 C42.6468256,25.1762565 42.1634202,25.6563282 41.5692326,25.6563282 C40.975045,25.6563282 40.4915537,25.1763418 40.4915537,24.5860814 L40.4915537,14.4760917 C40.4915537,13.8860018 40.9749591,13.4059302 41.5692326,13.4059302 C42.1633343,13.4059302 42.6468256,13.8859165 42.6468256,14.4760917 L42.6468256,24.5861667 Z" id="Shape"></path>
                <path d="M27.0349728,0 L11.2786515,0 C9.73307884,0 8.24076333,0.625087943 7.18412526,1.714987 L1.51585172,7.56214477 C0.538326215,8.57045287 0,9.88661534 0,11.2682664 L0,15.5787254 C0,18.5679589 2.51682753,21.5922069 5.61046382,21.5922069 L12.0134097,21.5922069 C12.2611263,21.5922069 13.1691998,21.1442678 12.7613464,20.7313845 C12.5538474,20.5213265 9.15249912,20.3239222 11.0070767,20.2566333 L5.61046382,20.1951499 C3.26320003,20.1951499 1.35350346,17.8469206 1.35350346,15.5788084 L1.35350346,11.2683494 C1.35350346,10.2201173 1.76195107,9.22135443 2.50368505,8.45624214 L8.17195859,2.60908437 C8.97364976,1.7822186 10.1060504,1.30786226 11.2787374,1.30786226 L27.0349728,1.30786226 C27.4087174,1.30786226 27.0349728,0.844964523 27.0349728,0.483739888 C27.0349728,0.122515253 27.4087174,0 27.0349728,0 Z" id="Shape"></path>
            </g>
        </g>
    </g>
</svg>