<?xml version="1.0" encoding="UTF-8"?>
<svg width="44px" height="46px" viewBox="0 0 44 46" version="1.1" xmlns="http://www.w3.org/2000/svg" xmlns:xlink="http://www.w3.org/1999/xlink">
    <!-- Generator: Sketch 47.1 (45422) - http://www.bohemiancoding.com/sketch -->
    <title>search (2)</title>
    <desc>Created with Sketch.</desc>
    <defs></defs>
    <g id="Web" stroke="none" stroke-width="1" fill="none" fill-rule="evenodd">
        <g id="choppy_web" transform="translate(-170.000000, -1113.000000)" fill-rule="nonzero" fill="#FF1F4C">
            <g id="search-(2)" transform="translate(170.000000, 1113.000000)">
                <path d="M43.7595581,44.5296605 L30.9399514,31.1090133 C34.209775,27.8079145 36.2355127,23.2570706 36.2355127,18.238115 C36.2355127,8.18109731 28.1084049,0 18.1177564,0 C8.12710786,0 0,8.18109731 0,18.238115 C0,28.2951327 8.12710786,36.47623 18.1177564,36.47623 C22.5031162,36.47623 26.5278463,34.8981988 29.6648064,32.2797266 L42.5154722,45.7333761 C42.6845713,45.9114149 42.9106118,46 43.1375152,46 C43.3532027,46 43.5680276,45.9192312 43.7354011,45.7576936 C44.0787758,45.4250651 44.0891288,44.8753162 43.7595581,44.5296605 Z M18.1177564,34.7392667 C9.07872144,34.7392667 1.72550061,27.3371974 1.72550061,18.238115 C1.72550061,9.13903259 9.07872144,1.73696333 18.1177564,1.73696333 C27.1567913,1.73696333 34.5100121,9.13903259 34.5100121,18.238115 C34.5100121,27.3371974 27.1559286,34.7392667 18.1177564,34.7392667 Z" id="Shape"></path>
            </g>
        </g>
    </g>
</svg>