<?xml version="1.0" encoding="UTF-8"?>
<svg width="16px" height="16px" viewBox="0 0 16 16" version="1.1" xmlns="http://www.w3.org/2000/svg" xmlns:xlink="http://www.w3.org/1999/xlink">
    <!-- Generator: Sketch 47.1 (45422) - http://www.bohemiancoding.com/sketch -->
    <title>telephone (4) copy</title>
    <desc>Created with Sketch.</desc>
    <defs></defs>
    <g id="Web" stroke="none" stroke-width="1" fill="none" fill-rule="evenodd">
        <g id="Artboard" transform="translate(-560.000000, -504.000000)" stroke="#FF1F4C" stroke-width="0.3" fill="#FF1F4C" fill-rule="nonzero">
            <g id="telephone-(4)-copy" transform="translate(561.000000, 505.000000)">
                <path d="M2.83703696,9.30625777 C4.22312518,10.9569001 5.89167256,12.2565271 7.79608788,13.1761293 C8.52116345,13.5184418 9.49084281,13.9245752 10.5711763,13.9941981 C10.6381511,13.997099 10.702214,14 10.7691889,14 C11.4942644,14 12.0766544,13.750518 12.5513023,13.2370493 C12.5542143,13.2341484 12.5600382,13.2283465 12.5629501,13.2225446 C12.7318432,13.0194778 12.9240319,12.8367178 13.1249565,12.6423539 C13.2618181,12.511811 13.4015917,12.3754662 13.5355414,12.2362205 C14.1557868,11.5922089 14.1557868,10.7741401 13.5297175,10.1504351 L11.7796355,8.40696229 C11.4826166,8.09946125 11.1273587,7.93700787 10.7546291,7.93700787 C10.3818995,7.93700787 10.0237297,8.09946125 9.71797491,8.40406133 L8.6754968,9.44260257 C8.57940245,9.38748446 8.48039614,9.33816826 8.38721374,9.291753 C8.27073574,9.23373394 8.16299359,9.17861583 8.06689924,9.11769581 C7.11760353,8.51719851 6.25566631,7.73394115 5.43158445,6.7273104 C5.01517559,6.20223788 4.73562839,5.761293 4.54052774,5.31164525 C4.81425104,5.06506424 5.07050265,4.8068794 5.3180184,4.55449648 C5.4053769,4.46456693 5.49564735,4.37463738 5.5859178,4.28470783 C5.90040841,3.97140489 6.06930151,3.60878574 6.06930151,3.24036469 C6.06930151,2.87194364 5.90332036,2.50932449 5.5859178,2.19602155 L4.71815669,1.33153751 C4.61623844,1.23000414 4.52014409,1.13137174 4.42113779,1.02983838 C4.22894908,0.83257356 4.02802453,0.629506838 3.83001193,0.446746788 C3.53008107,0.153750518 3.17773512,0 2.80500551,0 C2.43518786,0 2.07992995,0.153750518 1.7683513,0.449647741 L0.679281983,1.53460423 C0.283256777,1.92913386 0.0590366239,2.40779113 0.0124454232,2.96187319 C-0.0428816276,3.65520099 0.0852441743,4.3920431 0.417206479,5.28263572 C0.926797736,6.66058848 1.69555255,7.93990883 2.83703696,9.30625777 Z M0.722961233,3.0227932 C0.757904634,2.63696643 0.906414086,2.31496063 1.18596129,2.03646913 L2.26920671,0.957314546 C2.43809981,0.794861169 2.62446461,0.710733527 2.80500551,0.710733527 C2.98263447,0.710733527 3.16317537,0.794861169 3.32915652,0.963116453 C3.52425717,1.14297555 3.70771003,1.33153751 3.90572263,1.53170327 C4.00472893,1.63323663 4.10664718,1.73477 4.20856543,1.83920431 L5.07632655,2.70368835 C5.25686745,2.88354745 5.35004985,3.0663075 5.35004985,3.2461666 C5.35004985,3.42602569 5.25686745,3.60878574 5.07632655,3.78864484 C4.98605609,3.87857439 4.89578564,3.97140489 4.80551519,4.06133444 C4.53470384,4.33402404 4.28136418,4.59220887 4.00181698,4.83878989 C3.99599308,4.84459179 3.99308113,4.84749275 3.98725723,4.85329465 C3.74556538,5.09407377 3.78342073,5.32324907 3.84165973,5.49730626 C3.84457168,5.50600912 3.84748363,5.51181102 3.85039558,5.52051388 C4.07461573,6.05719022 4.38619439,6.56775798 4.87249004,7.17695814 C5.74607506,8.25031082 6.66625127,9.08288438 7.67960988,9.72399503 C7.80482373,9.80522172 7.93877344,9.86904269 8.06398729,9.93286366 C8.18046529,9.99088272 8.28820744,10.0460008 8.38430179,10.1069208 C8.39594959,10.1127228 8.40468544,10.1185247 8.41633324,10.1243266 C8.5124276,10.1736428 8.60561,10.1968504 8.6987924,10.1968504 C8.9317484,10.1968504 9.0831698,10.0489018 9.13267295,9.99958558 L10.2217423,8.91462909 C10.3906354,8.74637381 10.5740882,8.65644426 10.7546291,8.65644426 C10.9759373,8.65644426 11.1564782,8.79278906 11.2700443,8.91462909 L13.0259502,10.6610029 C13.3753842,11.0091173 13.3724722,11.3862412 13.0172143,11.7546622 C12.8949124,11.8852051 12.7667866,12.0099461 12.629925,12.140489 C12.4260885,12.3377538 12.2135161,12.5408206 12.0213274,12.7699959 C11.6864531,13.129714 11.287516,13.2979693 10.7721008,13.2979693 C10.7225977,13.2979693 10.6701826,13.2950684 10.6206794,13.2921674 C9.66555981,13.2312474 8.77741505,12.8599254 8.11057849,12.5437215 C6.29934556,11.6705346 4.70942084,10.4318276 3.39030747,8.85951098 C2.30415011,7.55698301 1.57325065,6.34438458 1.08986694,5.04475756 C0.789936084,4.24699544 0.676370033,3.60588479 0.722961233,3.0227932 Z" id="Shape"></path>
            </g>
        </g>
    </g>
</svg>