<?xml version="1.0" encoding="UTF-8"?>
<svg width="31px" height="27px" viewBox="0 0 31 27" version="1.1" xmlns="http://www.w3.org/2000/svg" xmlns:xlink="http://www.w3.org/1999/xlink">
    <!-- Generator: Sketch 47.1 (45422) - http://www.bohemiancoding.com/sketch -->
    <title>Shape</title>
    <desc>Created with Sketch.</desc>
    <defs></defs>
    <g id="Web" stroke="none" stroke-width="1" fill="none" fill-rule="evenodd">
        <g id="choppy_web" transform="translate(-408.000000, -2871.000000)" fill-rule="nonzero" fill="#FF1F4C">
            <g id="video-camera" transform="translate(408.000000, 2871.000000)">
                <path d="M30.0928421,1.45634694 C29.5381053,1.215 28.9202807,1.32685714 28.4873684,1.74453061 L22.2982456,7.53189796 L22.2982456,2.7242449 C22.2982456,1.22216327 21.0919649,0 19.6094035,0 L2.68884211,0 C1.2062807,0 0,1.22216327 0,2.7242449 L0,15.5437347 C0,16.9995306 1.16875439,18.1836735 2.60563158,18.1836735 L10.6411579,18.1836735 L6.96357895,26.217 C6.83740351,26.4930612 6.95542105,26.8209184 7.22789474,26.9487551 C7.30185965,26.9840204 7.37963158,27 7.45631579,27 C7.66135088,27 7.85768421,26.8815306 7.95014035,26.6809592 L11.4928421,18.9424286 L15.0355439,26.6809592 C15.1274561,26.8815306 15.3237895,27 15.5288246,27 C15.6055088,27 15.6832807,26.9840204 15.7572456,26.9487551 C16.0297193,26.8209184 16.1482807,26.4930612 16.0215614,26.217 L12.3445263,18.1836735 L19.4848596,18.1836735 C21.0359474,18.1836735 22.2982456,16.9047551 22.2982456,15.3326939 L22.2982456,10.9234286 L28.4547368,16.8849184 C28.7435263,17.1764082 29.1144386,17.3301429 29.4973158,17.3301429 C29.6892982,17.3301429 29.8834561,17.2921224 30.0721754,17.2133265 C30.6361579,16.9780408 31,16.4253673 31,15.8049184 L31,2.85593878 C31,2.23604082 30.6524737,1.69934694 30.0928421,1.45634694 Z M21.2105263,15.3326939 C21.2105263,16.2969796 20.436614,17.0816327 19.4848596,17.0816327 L11.5129649,17.0816327 C11.5118772,17.0816327 11.5107895,17.0816327 11.5097018,17.0816327 L11.4765263,17.0816327 C11.4748947,17.0816327 11.4727193,17.0816327 11.4710877,17.0816327 L2.60563158,17.0816327 C1.76863158,17.0816327 1.0877193,16.3917551 1.0877193,15.5437347 L1.0877193,2.7242449 C1.0877193,1.82993878 1.80615789,1.10204082 2.68884211,1.10204082 L19.6094035,1.10204082 C20.4920877,1.10204082 21.2105263,1.82993878 21.2105263,2.7242449 L21.2105263,15.3326939 Z M29.9122807,15.8049184 C29.9122807,16.0677551 29.7181228,16.1691429 29.6582982,16.1939388 C29.5843333,16.2253469 29.3928947,16.2776939 29.2215789,16.1030204 L22.4184386,9.51612245 C22.3390351,9.43512245 22.296614,9.32657143 22.2982456,9.21140816 C22.2998772,9.0962449 22.3455614,8.98989796 22.4222456,8.91606122 L29.2313684,2.54846939 C29.3232807,2.4597551 29.4195439,2.43385714 29.5005789,2.43385714 C29.5712807,2.43385714 29.6305614,2.4542449 29.6642807,2.46857143 C29.7219298,2.49391837 29.9122807,2.59695918 29.9122807,2.85593878 L29.9122807,15.8049184 Z" id="Shape"></path>
            </g>
        </g>
    </g>
</svg>