<?xml version="1.0" encoding="UTF-8"?>
<svg width="45px" height="45px" viewBox="0 0 45 45" version="1.1" xmlns="http://www.w3.org/2000/svg" xmlns:xlink="http://www.w3.org/1999/xlink">
    <!-- Generator: Sketch 47.1 (45422) - http://www.bohemiancoding.com/sketch -->
    <title>wallet (2)</title>
    <desc>Created with Sketch.</desc>
    <defs></defs>
    <g id="Web" stroke="none" stroke-width="1" fill="none" fill-rule="evenodd">
        <g id="choppy_web" transform="translate(-650.000000, -1112.000000)" fill-rule="nonzero" fill="#FF1F4C">
            <g id="wallet-(2)" transform="translate(650.000000, 1112.000000)">
                <path d="M44.044898,19.4326531 L42.8969388,19.4326531 L42.8969388,11.6816327 C42.8969388,9.86326531 41.4642857,8.43061224 39.7377551,8.43061224 L38.8744898,8.43061224 L38.8744898,3.25102041 C38.8744898,1.43265306 37.5336735,0 35.9081633,0 C35.9081633,0 35.8163265,0 35.7153061,0 L2.96632653,8.42142857 C2.95714286,8.42142857 2.93877551,8.43061224 2.92959184,8.43061224 C1.31326531,8.55918367 0,9.94591837 0,11.6816327 L0,41.7489796 C0,43.5673469 1.43265306,45 3.15918367,45 L39.7377551,45 C41.5561224,45 42.9887755,43.5673469 42.9887755,41.7489796 L42.9887755,33.7959184 L44.044898,33.7959184 C44.6234694,33.7959184 45,33.4102041 45,32.8408163 L45,20.3969388 C45,19.8183673 44.522449,19.4326531 44.044898,19.4326531 Z M36.0918367,1.81836735 C36.5693878,1.91020408 37.0469388,2.48877551 37.0469388,3.25102041 L37.0469388,8.42142857 L10.6255102,8.42142857 L36.0918367,1.81836735 Z M41.0785714,41.7489796 C41.0785714,42.5112245 40.5,43.1816327 39.7377551,43.1816327 L3.15918367,43.1816327 C2.39693878,43.1816327 1.81836735,42.5112245 1.81836735,41.7489796 L1.81836735,11.6816327 C1.81836735,10.9193878 2.39693878,10.2489796 3.15918367,10.2489796 L39.6367347,10.2489796 C40.3989796,10.2489796 40.977551,10.9193878 40.977551,11.6816327 L40.977551,19.4326531 L31.5,19.4326531 C27.477551,19.4326531 24.3183673,22.5918367 24.3183673,26.6142857 C24.3183673,30.6367347 27.5693878,33.7959184 31.5,33.7959184 L41.0785714,33.7959184 L41.0785714,41.7489796 Z M43.0806122,31.977551 L31.5,31.977551 C28.6255102,31.977551 26.2377551,29.5806122 26.2377551,26.7153061 C26.2377551,23.85 28.6346939,21.4530612 31.5,21.4530612 L43.0806122,21.4530612 L43.0806122,31.977551 Z" id="Shape"></path>
                <path d="M30,27 C30,27.6057692 30.5165563,28 31.0331126,28 L31.9668874,28 C32.4834437,28 33,27.5961538 33,27 C33,26.3942308 32.4834437,26 31.9668874,26 L31.0430464,26 C30.4172185,26 30,26.4038462 30,27 L30,27 Z" id="Shape"></path>
            </g>
        </g>
    </g>
</svg>